<?xml version="1.0" encoding="UTF-8"?>
<svg width="38px" height="38px" viewBox="0 0 38 38" version="1.1" xmlns="http://www.w3.org/2000/svg" xmlns:xlink="http://www.w3.org/1999/xlink">
    <title>Combined Shape</title>
    <g id="Exercise" stroke="none" stroke-width="1" fill="none" fill-rule="evenodd">
        <g id="M" transform="translate(-24.000000, -20.000000)" fill="#FFFFFF" fill-rule="nonzero">
            <path d="M43,20 C53.4934102,20 62,28.5065898 62,39 C62,49.4934102 53.4934102,58 43,58 C32.5065898,58 24,49.4934102 24,39 C24,28.5065898 32.5065898,20 43,20 Z M43,23.6190476 C34.5053346,23.6190476 27.6190476,30.5053346 27.6190476,39 C27.6190476,47.4946654 34.5053346,54.3809524 43,54.3809524 C51.4946654,54.3809524 58.3809524,47.4946654 58.3809524,39 C58.3809524,30.5053346 51.4946654,23.6190476 43,23.6190476 Z M45.5,34 C49.6421356,34 53,37.3578644 53,41.5 C53,45.6421356 49.6421356,49 45.5,49 C41.3578644,49 38,45.6421356 38,41.5 C38,37.3578644 41.3578644,34 45.5,34 Z M45.5,37.5294118 C43.3071047,37.5294118 41.5294118,39.3071047 41.5294118,41.5 C41.5294118,43.6928953 43.3071047,45.4705882 45.5,45.4705882 C47.6928953,45.4705882 49.4705882,43.6928953 49.4705882,41.5 C49.4705882,39.3071047 47.6928953,37.5294118 45.5,37.5294118 Z" id="Combined-Shape"></path>
        </g>
    </g>
</svg>