<?xml version="1.0" encoding="UTF-8"?>
<svg width="38px" height="38px" viewBox="0 0 38 38" version="1.1" xmlns="http://www.w3.org/2000/svg" xmlns:xlink="http://www.w3.org/1999/xlink">
    <title>Combined Shape</title>
    <g id="Exercise" stroke="none" stroke-width="1" fill="none" fill-rule="evenodd">
        <g id="L" transform="translate(-783.000000, -2545.000000)" fill="#000000" fill-rule="nonzero">
            <g id="Group-6" transform="translate(0.000000, 2497.000000)">
                <path d="M802,48 C812.49341,48 821,56.5065898 821,67 C821,77.4934102 812.49341,86 802,86 C791.50659,86 783,77.4934102 783,67 C783,56.5065898 791.50659,48 802,48 Z M802,51.6190476 C793.505335,51.6190476 786.619048,58.5053346 786.619048,67 C786.619048,75.4946654 793.505335,82.3809524 802,82.3809524 C810.494665,82.3809524 817.380952,75.4946654 817.380952,67 C817.380952,58.5053346 810.494665,51.6190476 802,51.6190476 Z M804.5,62 C808.642136,62 812,65.3578644 812,69.5 C812,73.6421356 808.642136,77 804.5,77 C800.357864,77 797,73.6421356 797,69.5 C797,65.3578644 800.357864,62 804.5,62 Z M804.5,65.5294118 C802.307105,65.5294118 800.529412,67.3071047 800.529412,69.5 C800.529412,71.6928953 802.307105,73.4705882 804.5,73.4705882 C806.692895,73.4705882 808.470588,71.6928953 808.470588,69.5 C808.470588,67.3071047 806.692895,65.5294118 804.5,65.5294118 Z" id="Combined-Shape"></path>
            </g>
        </g>
    </g>
</svg>